<?xml version='1.0' encoding='utf-8'?>
<svg xmlns="http://www.w3.org/2000/svg" width="800" height="800" version="1.1" viewBox="0 0 800 800"> <title>atras</title> <g id="Layer_1"> <title>Layer 1</title> <ellipse fill="#FABA6F" cx="399.93713" cy="395.6179" id="svg_2" rx="394.27664" ry="393.44179" stroke="null"/> <path fill="#A0D58A" d="m405.5394,311.85846l0.74251,-0.74001l0.74251,0.74001l-0.37125,0l0,0.74357l-0.74251,0l0,-0.74357l-0.37125,0l-0.00001,0z" id="svg_3" stroke="null"/> <path fill="#ffffff" stroke="null" d="m471.20939,367.57846l10,-0.74001l10,0.74001l-5,0l0,0.74357l-10,0l0,-0.74357l-5,0z" id="svg_5"/> <path fill="#ffffff" stroke="null" d="m427.4294,361.60846l0.74251,-0.74001l0.74251,0.74001l-0.37125,0l0,0.74357l-0.74251,0l0,-0.74357l-0.37125,0l-0.00001,0z" id="svg_6"/> <path fill="#ffffff" stroke="null" d="m885.1294,345.68846l0.74251,-0.74001l0.74251,0.74001l-0.37125,0l0,0.74357l-0.74251,0l0,-0.74357l-0.37125,0l-0.00001,0z" id="svg_8"/> <path stroke="null" id="svg_15" d="m386.44741,578.70561c103.41558,0 187.24174,-82.33384 187.24174,-183.8969c0,-101.56327 -83.82616,-183.89695 -187.24174,-183.89695c-103.41053,0 -187.24185,82.33368 -187.24185,183.89695c0,101.56306 83.83132,183.8969 187.24185,183.8969zm30.08154,-306.93412l45.55696,44.76758l-79.70768,78.27927l79.70768,78.28401l-45.55696,44.75281l-125.26044,-123.0368l125.26044,-123.04686l0,-0.00001z" stroke-width="0" fill="#7B572D"/> <path stroke="null" id="svg_12" d="m399.26874,578.70561c103.41558,0 187.24175,-82.33384 187.24175,-183.8969c0,-101.56327 -83.82617,-183.89695 -187.24175,-183.89695c-103.41052,0 -187.24185,82.33368 -187.24185,183.89695c0,101.56306 83.83132,183.8969 187.24185,183.8969zm30.08154,-306.93412l45.55696,44.76759l-79.70768,78.27927l79.70768,78.28401l-45.55696,44.75281l-125.26044,-123.0368l125.26044,-123.04685l0,-0.00002z" stroke-width="0" fill="#ffffff"/> </g> </svg>